<svg width="124" height="106" viewBox="0 0 124 106" fill="none" xmlns="http://www.w3.org/2000/svg">
<g id="Frame" clip-path="url(#clip0_0_255)">
<path id="Vector" opacity="0.2" d="M55.19 26.188C59.621 9.95004 76.361 0.152039 112.81 3.89393e-05C113.391 -0.00231905 113.966 0.102434 114.509 0.309039C115.042 0.511355 115.53 0.813805 115.949 1.20004C116.361 1.58304 116.687 2.03704 116.909 2.53704C117.131 3.03704 117.244 3.57304 117.242 4.11404V76.65C117.242 77.74 116.775 78.787 115.944 79.558C115.113 80.33 113.985 80.763 112.81 80.763C77.35 80.763 63.651 89.66 55.188 99.478V26.188H55.19Z" fill="#46B1FF"/>
<path id="Vector_2" d="M62 31.652V104M62 31.652C66.286 15.786 82.472 7.68404 117.714 7.53604C118.278 7.53404 118.836 7.63604 119.357 7.83804C119.878 8.03904 120.351 8.33504 120.749 8.70904C121.148 9.08304 121.463 9.52704 121.678 10.015C121.893 10.504 122.002 11.027 122 11.555V83.903C121.997 84.4376 121.884 84.9659 121.668 85.4549C121.452 85.944 121.138 86.3835 120.745 86.746C119.92 87.5079 118.837 87.9286 117.714 87.923C83.429 87.923 70.183 94.406 62 104C53.865 94.454 40.571 87.923 6.286 87.923C3.639 87.923 2 85.9 2 83.419V11.556C1.9984 11.0258 2.1081 10.5012 2.322 10.016C2.537 9.52604 2.852 9.08304 3.251 8.70904C3.65483 8.33234 4.12744 8.03696 4.643 7.83904C5.16706 7.63676 5.72426 7.534 6.286 7.53604C41.528 7.68504 57.714 15.786 62 31.652V31.652Z" stroke="#425D8D" stroke-width="4" stroke-linecap="round" stroke-linejoin="round"/>
</g>
<defs>
<clipPath id="clip0_0_255">
<rect width="124" height="106" fill="white"/>
</clipPath>
</defs>
</svg>
