<svg width="56" height="21" viewBox="0 0 56 21" fill="none" xmlns="http://www.w3.org/2000/svg">
<g id="Frame" clip-path="url(#clip0_0_203)">
<path id="Vector" fill-rule="evenodd" clip-rule="evenodd" d="M22.937 16.6C26.334 18.1 29.824 19.5 32.854 20.5C36.435 12.7 43.971 6.5 56 0.8V0.5C40.23 4.824 29.916 8.4 22.937 16.6ZM29.737 1.339C26.539 1.068 6.877 0.829 0 4.417C2.376 5.92758 4.78665 7.38297 7.23 8.782C15.683 4.259 28.694 2.992 35.404 2.734V2.491C33.675 2.22 30.794 1.428 29.737 1.339Z" fill="#0060A3"/>
<path id="Vector_2" fill-rule="evenodd" clip-rule="evenodd" d="M36.55 3.08302C29.896 4.05302 17.505 4.88902 10.85 10.707C13.323 12.124 16.36 13.56 18.965 14.829C28.642 6.41402 38.42 4.73102 47.126 2.64102V2.42102C42.046 2.83902 39.119 2.80402 36.552 3.08302H36.55Z" fill="#0060A3"/>
</g>
<defs>
<clipPath id="clip0_0_203">
<rect width="56" height="21" fill="white"/>
</clipPath>
</defs>
</svg>
