<svg width="58" height="25" viewBox="0 0 58 25" fill="none" xmlns="http://www.w3.org/2000/svg">
<g id="Frame" clip-path="url(#clip0_0_157)">
<path id="Vector" fill-rule="evenodd" clip-rule="evenodd" d="M23.895 19.724C27.415 21.561 31.032 23.275 34.172 24.5C37.883 14.948 44.639 7.35597 57.105 0.376972V0.00897217C41.12 5.64197 31.127 9.68297 23.895 19.724ZM30.438 1.10397C26.917 0.824972 8.456 0.127973 0.272003 5.28797C2.462 7.24097 4.84 9.19297 7.695 11.425C15.879 5.84597 26.345 3.89297 36.052 3.05697V2.63797C34.149 2.35897 32.055 1.80097 30.438 1.10397Z" fill="#001A3A"/>
<path id="Vector_2" fill-rule="evenodd" clip-rule="evenodd" d="M39.405 2.88499C32.078 3.88399 19.231 6.63099 11.904 12.624C14.568 14.372 17.328 16.12 20.183 17.743C27.795 9.12799 38.073 5.25699 48.445 2.63499V2.26099C45.875 2.63499 41.879 2.88499 39.405 2.88499Z" fill="#001A3A"/>
</g>
<defs>
<clipPath id="clip0_0_157">
<rect width="58" height="25" fill="white"/>
</clipPath>
</defs>
</svg>
