<svg width="66" height="66" viewBox="0 0 66 66" fill="none" xmlns="http://www.w3.org/2000/svg">
<g id="Frame" clip-path="url(#clip0_0_112)">
<path id="Vector" d="M1 20.693H5.923M33 5.923V1V5.923ZM45.308 5.923V1V5.923ZM20.692 5.923V1V5.923ZM33 65V60.077V65ZM45.308 65V60.077V65ZM20.692 65V60.077V65ZM60.077 33H65H60.077ZM60.077 45.308H65H60.077ZM60.077 20.693H65H60.077ZM1 33H5.923H1ZM1 45.308H5.923H1Z" stroke="#7CABFF" stroke-width="2" stroke-linecap="round" stroke-linejoin="round"/>
<path id="Vector_2" d="M52.692 5.92297H13.308C11.3493 5.92297 9.47095 6.70103 8.08599 8.08599C6.70103 9.47095 5.92297 11.3493 5.92297 13.308V52.693C5.92324 54.6514 6.70142 56.5296 8.08634 57.9143C9.47127 59.2991 11.3495 60.077 13.308 60.077H52.692C54.6504 60.077 56.5287 59.2991 57.9136 57.9143C59.2985 56.5296 60.0767 54.6514 60.077 52.693V13.308C60.077 11.3493 59.2989 9.47095 57.914 8.08599C56.529 6.70103 54.6506 5.92297 52.692 5.92297V5.92297Z" stroke="#5174B0" stroke-width="2" stroke-linejoin="round"/>
<path id="Vector_3" d="M47.77 15.77H18.23C17.5776 15.7705 16.952 16.03 16.4908 16.4915C16.0295 16.9529 15.7703 17.5786 15.77 18.231V47.77C15.77 48.4226 16.0291 49.0486 16.4904 49.5102C16.9517 49.9719 17.5774 50.2315 18.23 50.232H47.77C48.4226 50.2315 49.0483 49.9719 49.5096 49.5102C49.9709 49.0486 50.23 48.4226 50.23 47.77V18.232C50.23 17.5794 49.9709 16.9535 49.5096 16.4918C49.0483 16.0302 48.4226 15.7705 47.77 15.77V15.77Z" stroke="#77C6FF" stroke-width="2" stroke-linejoin="round"/>
</g>
<defs>
<clipPath id="clip0_0_112">
<rect width="66" height="66" fill="white"/>
</clipPath>
</defs>
</svg>
